<svg width="264" height="66" viewBox="0 0 264 66" fill="none" xmlns="http://www.w3.org/2000/svg">
<path d="M263.25 33C263.25 37.1275 259.886 41.2743 253.245 45.1994C246.655 49.0949 237.068 52.6289 225.156 55.6069C201.344 61.56 168.408 65.25 132 65.25C95.5921 65.25 62.656 61.56 38.8438 55.6069C26.9319 52.6289 17.3454 49.0949 10.7548 45.1994C4.1141 41.2743 0.75 37.1275 0.75 33C0.75 28.8725 4.1141 24.7257 10.7548 20.8006C17.3454 16.9051 26.9319 13.3711 38.8438 10.3931C62.656 4.44003 95.5921 0.75 132 0.75C168.408 0.75 201.344 4.44003 225.156 10.3931C237.068 13.3711 246.655 16.9051 253.245 20.8006C259.886 24.7257 263.25 28.8725 263.25 33Z" stroke="#77211E" stroke-width="1.5"/>
</svg>
