<svg width="70" height="28" viewBox="0 0 70 28" fill="none" xmlns="http://www.w3.org/2000/svg">
<path d="M69.25 14C69.25 15.6603 68.4119 17.3179 66.7342 18.9045C65.0549 20.4926 62.5848 21.9573 59.4702 23.2031C53.2452 25.6931 44.594 27.25 35 27.25C25.406 27.25 16.7548 25.6931 10.5298 23.2031C7.41522 21.9573 4.94506 20.4926 3.2658 18.9045C1.58814 17.3179 0.75 15.6603 0.75 14C0.75 12.3397 1.58814 10.6821 3.2658 9.09548C4.94506 7.5074 7.41522 6.0427 10.5298 4.79686C16.7548 2.30686 25.406 0.75 35 0.75C44.594 0.75 53.2452 2.30686 59.4702 4.79686C62.5848 6.0427 65.0549 7.5074 66.7342 9.09548C68.4119 10.6821 69.25 12.3397 69.25 14Z" stroke="#77211E" stroke-width="1.5"/>
</svg>
