<svg width="24" height="27" viewBox="0 0 24 27" fill="none" xmlns="http://www.w3.org/2000/svg">
<path d="M17.6197 26.3214H5.65616C4.74727 26.3214 3.93113 25.627 3.62469 24.5937L0.125525 12.7579C-0.110374 11.9607 -0.00979056 11.0722 0.393643 10.3807C0.797068 9.68806 1.45611 9.27515 2.15697 9.27515H21.119C21.8196 9.27515 22.479 9.68806 22.8824 10.3799C23.2858 11.0716 23.3867 11.9597 23.1505 12.7571L19.6507 24.5917C19.3453 25.6268 18.5288 26.3212 17.6196 26.3212L17.6197 26.3214ZM5.9439 23.2222H17.332L20.5393 12.3749H2.73652L5.9439 23.2222Z" fill="#EDF0D7"/>
<path d="M8.11035 15.9824C8.11035 15.2739 8.68475 14.6995 9.39331 14.6995C10.1019 14.6995 10.6763 15.2739 10.6763 15.9824V19.615C10.6763 20.3235 10.1019 20.8979 9.39331 20.8979C8.68475 20.8979 8.11035 20.3235 8.11035 19.615V15.9824Z" fill="#EDF0D7"/>
<path d="M12.6006 15.9824C12.6006 15.2739 13.175 14.6995 13.8835 14.6995C14.5921 14.6995 15.1665 15.2739 15.1665 15.9824V19.615C15.1665 20.3235 14.5921 20.8979 13.8835 20.8979C13.175 20.8979 12.6006 20.3235 12.6006 19.615V15.9824Z" fill="#EDF0D7"/>
<path d="M3.43891 1.18529C4.04161 0.569329 5.05568 0.652403 5.5501 1.35824L10.9987 9.13675C11.3788 9.67931 11.3185 10.4156 10.8552 10.8891C10.2525 11.505 9.23841 11.422 8.74399 10.7161L3.29536 2.93762C2.91531 2.39507 2.97563 1.65876 3.43891 1.18529Z" fill="#EDF0D7"/>
</svg>
