<svg width="633" height="182" viewBox="0 0 633 182" fill="none" xmlns="http://www.w3.org/2000/svg">
<path d="M632.25 91C632.25 103.186 623.655 114.96 607.706 125.801C591.783 136.625 568.692 146.403 540.092 154.626C482.901 171.069 403.849 181.25 316.5 181.25C229.151 181.25 150.099 171.069 92.9079 154.626C64.3075 146.403 41.217 136.625 25.2938 125.801C9.34527 114.96 0.75 103.186 0.75 91C0.75 78.8139 9.34527 67.0403 25.2938 56.199C41.217 45.3748 64.3075 35.5973 92.9079 27.3741C150.099 10.9306 229.151 0.75 316.5 0.75C403.849 0.75 482.901 10.9306 540.092 27.3741C568.692 35.5973 591.783 45.3748 607.706 56.199C623.655 67.0403 632.25 78.8139 632.25 91Z" stroke="#77211E" stroke-width="1.5"/>
</svg>
